# xmcd
#
# Track frame offsets:
#	150
#	13488
#	35182
#	48829
#	65119
#	80815
#	99950
#	113478
#	134421
#	148536
#	186504
#	203313
#	214868
#	239500
#	257442
#	269418
#	284156
#
# Disc length: 4001 seconds
# Revision: 0
# Processed by: cddbd v1.5.1PL2 Copyright (c) Steve Scherf et al.
# Submitted via: cdrLabel 7.0
#
DISCID=0b0f9f11
DTITLE=Taj Mahal - Taj Mahal - The best Of Taj Mahal
DYEAR=1900
DGENRE=
TTITLE0=statesboro Blues
TTITLE1=Leaving Trunk
TTITLE2=Corinna
TTITLE3=Goin Up To The Country, Paint My Mailbox Blue
TTITLE4=She Caught The Katy And Left Me A Mule To Ride
TTITLE5=Take A Giant Step
TTITLE6=Six Days On The Road
TTITLE7=Farther On Down The Road
TTITLE8=Fishing Blues
TTITLE9=Ain't Gwine To Whistle Dixie (Any Mo') (Live)
TTITLE10=You're Going To Need Somebody On Your Bond (Live)
TTITLE11=Cakewalk Into Town
TTITLE12=Oh Susanna
TTITLE13=Frankie And Albert
TTITLE14=Chevrolet
TTITLE15=Johnny Too Bad
TTITLE16=Sweet Mama Janisse (Studio)
EXTD=
EXTT0=
EXTT1=
EXTT2=
EXTT3=
EXTT4=
EXTT5=
EXTT6=
EXTT7=
EXTT8=
EXTT9=
EXTT10=
EXTT11=
EXTT12=
EXTT13=
EXTT14=
EXTT15=
EXTT16=
PLAYORDER=
